<mxfile host="app.diagrams.net" modified="2023-11-26T10:28:02.759Z" agent="Mozilla/5.0 (Macintosh; Intel Mac OS X 10_15_7) AppleWebKit/537.36 (KHTML, like Gecko) Chrome/119.0.0.0 Safari/537.36" etag="4T2lKKWGg2VEkIAwYRVR" version="22.1.4" type="github">
  <diagram id="C5RBs43oDa-KdzZeNtuy" name="Page-1">
    <mxGraphModel dx="2896" dy="760" grid="1" gridSize="10" guides="1" tooltips="1" connect="1" arrows="1" fold="1" page="1" pageScale="1" pageWidth="827" pageHeight="1169" math="0" shadow="0">
      <root>
        <mxCell id="WIyWlLk6GJQsqaUBKTNV-0" />
        <mxCell id="WIyWlLk6GJQsqaUBKTNV-1" parent="WIyWlLk6GJQsqaUBKTNV-0" />
        <mxCell id="kQuobPmg_RCRlRh3Mcc4-0" value="&lt;span style=&quot;font-weight: normal;&quot;&gt;Field&lt;/span&gt;" style="swimlane;fontStyle=1;align=center;verticalAlign=top;childLayout=stackLayout;horizontal=1;startSize=26;horizontalStack=0;resizeParent=1;resizeParentMax=0;resizeLast=0;collapsible=1;marginBottom=0;whiteSpace=wrap;html=1;" parent="WIyWlLk6GJQsqaUBKTNV-1" vertex="1">
          <mxGeometry x="310" y="640" width="160" height="112" as="geometry" />
        </mxCell>
        <mxCell id="kQuobPmg_RCRlRh3Mcc4-1" value="- __value: Any" style="text;strokeColor=none;fillColor=none;align=left;verticalAlign=top;spacingLeft=4;spacingRight=4;overflow=hidden;rotatable=0;points=[[0,0.5],[1,0.5]];portConstraint=eastwest;whiteSpace=wrap;html=1;" parent="kQuobPmg_RCRlRh3Mcc4-0" vertex="1">
          <mxGeometry y="26" width="160" height="26" as="geometry" />
        </mxCell>
        <mxCell id="kQuobPmg_RCRlRh3Mcc4-2" value="" style="line;strokeWidth=1;fillColor=none;align=left;verticalAlign=middle;spacingTop=-1;spacingLeft=3;spacingRight=3;rotatable=0;labelPosition=right;points=[];portConstraint=eastwest;strokeColor=inherit;" parent="kQuobPmg_RCRlRh3Mcc4-0" vertex="1">
          <mxGeometry y="52" width="160" height="8" as="geometry" />
        </mxCell>
        <mxCell id="kQuobPmg_RCRlRh3Mcc4-3" value="- __init__(Any): None" style="text;strokeColor=none;fillColor=none;align=left;verticalAlign=top;spacingLeft=4;spacingRight=4;overflow=hidden;rotatable=0;points=[[0,0.5],[1,0.5]];portConstraint=eastwest;whiteSpace=wrap;html=1;" parent="kQuobPmg_RCRlRh3Mcc4-0" vertex="1">
          <mxGeometry y="60" width="160" height="26" as="geometry" />
        </mxCell>
        <mxCell id="kQuobPmg_RCRlRh3Mcc4-11" value="-__str__&lt;span style=&quot;background-color: initial;&quot;&gt;(): str&lt;/span&gt;" style="text;strokeColor=none;fillColor=none;align=left;verticalAlign=top;spacingLeft=4;spacingRight=4;overflow=hidden;rotatable=0;points=[[0,0.5],[1,0.5]];portConstraint=eastwest;whiteSpace=wrap;html=1;" parent="kQuobPmg_RCRlRh3Mcc4-0" vertex="1">
          <mxGeometry y="86" width="160" height="26" as="geometry" />
        </mxCell>
        <mxCell id="kQuobPmg_RCRlRh3Mcc4-14" value="&lt;span style=&quot;font-weight: normal;&quot;&gt;Name&lt;/span&gt;" style="swimlane;fontStyle=1;align=center;verticalAlign=top;childLayout=stackLayout;horizontal=1;startSize=26;horizontalStack=0;resizeParent=1;resizeParentMax=0;resizeLast=0;collapsible=1;marginBottom=0;whiteSpace=wrap;html=1;" parent="WIyWlLk6GJQsqaUBKTNV-1" vertex="1">
          <mxGeometry x="-10" y="800" width="160" height="138" as="geometry">
            <mxRectangle x="-10" y="800" width="70" height="30" as="alternateBounds" />
          </mxGeometry>
        </mxCell>
        <mxCell id="kQuobPmg_RCRlRh3Mcc4-15" value="- __value: Any" style="text;strokeColor=none;fillColor=none;align=left;verticalAlign=top;spacingLeft=4;spacingRight=4;overflow=hidden;rotatable=0;points=[[0,0.5],[1,0.5]];portConstraint=eastwest;whiteSpace=wrap;html=1;" parent="kQuobPmg_RCRlRh3Mcc4-14" vertex="1">
          <mxGeometry y="26" width="160" height="26" as="geometry" />
        </mxCell>
        <mxCell id="kQuobPmg_RCRlRh3Mcc4-16" value="" style="line;strokeWidth=1;fillColor=none;align=left;verticalAlign=middle;spacingTop=-1;spacingLeft=3;spacingRight=3;rotatable=0;labelPosition=right;points=[];portConstraint=eastwest;strokeColor=inherit;" parent="kQuobPmg_RCRlRh3Mcc4-14" vertex="1">
          <mxGeometry y="52" width="160" height="8" as="geometry" />
        </mxCell>
        <mxCell id="kQuobPmg_RCRlRh3Mcc4-17" value="- __init__(Any): None" style="text;strokeColor=none;fillColor=none;align=left;verticalAlign=top;spacingLeft=4;spacingRight=4;overflow=hidden;rotatable=0;points=[[0,0.5],[1,0.5]];portConstraint=eastwest;whiteSpace=wrap;html=1;" parent="kQuobPmg_RCRlRh3Mcc4-14" vertex="1">
          <mxGeometry y="60" width="160" height="26" as="geometry" />
        </mxCell>
        <mxCell id="kQuobPmg_RCRlRh3Mcc4-18" value="&lt;span style=&quot;background-color: initial;&quot;&gt;+ value(): str&lt;/span&gt;" style="text;strokeColor=none;fillColor=none;align=left;verticalAlign=top;spacingLeft=4;spacingRight=4;overflow=hidden;rotatable=0;points=[[0,0.5],[1,0.5]];portConstraint=eastwest;whiteSpace=wrap;html=1;" parent="kQuobPmg_RCRlRh3Mcc4-14" vertex="1">
          <mxGeometry y="86" width="160" height="26" as="geometry" />
        </mxCell>
        <mxCell id="kQuobPmg_RCRlRh3Mcc4-21" value="&lt;span style=&quot;background-color: initial;&quot;&gt;+ value(str): None&lt;/span&gt;" style="text;strokeColor=none;fillColor=none;align=left;verticalAlign=top;spacingLeft=4;spacingRight=4;overflow=hidden;rotatable=0;points=[[0,0.5],[1,0.5]];portConstraint=eastwest;whiteSpace=wrap;html=1;" parent="kQuobPmg_RCRlRh3Mcc4-14" vertex="1">
          <mxGeometry y="112" width="160" height="26" as="geometry" />
        </mxCell>
        <mxCell id="kQuobPmg_RCRlRh3Mcc4-22" value="" style="edgeStyle=orthogonalEdgeStyle;rounded=0;orthogonalLoop=1;jettySize=auto;html=1;endArrow=block;endFill=0;exitX=1;exitY=1.077;exitDx=0;exitDy=0;exitPerimeter=0;entryX=0.5;entryY=0;entryDx=0;entryDy=0;" parent="WIyWlLk6GJQsqaUBKTNV-1" target="kQuobPmg_RCRlRh3Mcc4-23" edge="1">
          <mxGeometry relative="1" as="geometry">
            <mxPoint x="470" y="690.002" as="sourcePoint" />
            <mxPoint x="660" y="756" as="targetPoint" />
            <Array as="points">
              <mxPoint x="470" y="696" />
              <mxPoint x="710" y="696" />
            </Array>
          </mxGeometry>
        </mxCell>
        <mxCell id="kQuobPmg_RCRlRh3Mcc4-23" value="&lt;span style=&quot;font-weight: normal;&quot;&gt;Phone&lt;/span&gt;" style="swimlane;fontStyle=1;align=center;verticalAlign=top;childLayout=stackLayout;horizontal=1;startSize=26;horizontalStack=0;resizeParent=1;resizeParentMax=0;resizeLast=0;collapsible=1;marginBottom=0;whiteSpace=wrap;html=1;" parent="WIyWlLk6GJQsqaUBKTNV-1" vertex="1">
          <mxGeometry x="630" y="800" width="160" height="138" as="geometry" />
        </mxCell>
        <mxCell id="kQuobPmg_RCRlRh3Mcc4-24" value="- __value: Any" style="text;strokeColor=none;fillColor=none;align=left;verticalAlign=top;spacingLeft=4;spacingRight=4;overflow=hidden;rotatable=0;points=[[0,0.5],[1,0.5]];portConstraint=eastwest;whiteSpace=wrap;html=1;" parent="kQuobPmg_RCRlRh3Mcc4-23" vertex="1">
          <mxGeometry y="26" width="160" height="26" as="geometry" />
        </mxCell>
        <mxCell id="kQuobPmg_RCRlRh3Mcc4-25" value="" style="line;strokeWidth=1;fillColor=none;align=left;verticalAlign=middle;spacingTop=-1;spacingLeft=3;spacingRight=3;rotatable=0;labelPosition=right;points=[];portConstraint=eastwest;strokeColor=inherit;" parent="kQuobPmg_RCRlRh3Mcc4-23" vertex="1">
          <mxGeometry y="52" width="160" height="8" as="geometry" />
        </mxCell>
        <mxCell id="kQuobPmg_RCRlRh3Mcc4-26" value="- __init__(Any): None" style="text;strokeColor=none;fillColor=none;align=left;verticalAlign=top;spacingLeft=4;spacingRight=4;overflow=hidden;rotatable=0;points=[[0,0.5],[1,0.5]];portConstraint=eastwest;whiteSpace=wrap;html=1;" parent="kQuobPmg_RCRlRh3Mcc4-23" vertex="1">
          <mxGeometry y="60" width="160" height="26" as="geometry" />
        </mxCell>
        <mxCell id="kQuobPmg_RCRlRh3Mcc4-27" value="&lt;span style=&quot;background-color: initial;&quot;&gt;+ value(): str&lt;/span&gt;" style="text;strokeColor=none;fillColor=none;align=left;verticalAlign=top;spacingLeft=4;spacingRight=4;overflow=hidden;rotatable=0;points=[[0,0.5],[1,0.5]];portConstraint=eastwest;whiteSpace=wrap;html=1;" parent="kQuobPmg_RCRlRh3Mcc4-23" vertex="1">
          <mxGeometry y="86" width="160" height="26" as="geometry" />
        </mxCell>
        <mxCell id="kQuobPmg_RCRlRh3Mcc4-28" value="&lt;span style=&quot;background-color: initial;&quot;&gt;+ value(str): None&lt;/span&gt;" style="text;strokeColor=none;fillColor=none;align=left;verticalAlign=top;spacingLeft=4;spacingRight=4;overflow=hidden;rotatable=0;points=[[0,0.5],[1,0.5]];portConstraint=eastwest;whiteSpace=wrap;html=1;" parent="kQuobPmg_RCRlRh3Mcc4-23" vertex="1">
          <mxGeometry y="112" width="160" height="26" as="geometry" />
        </mxCell>
        <mxCell id="kQuobPmg_RCRlRh3Mcc4-29" value="&lt;span style=&quot;font-weight: normal;&quot;&gt;Email&lt;/span&gt;" style="swimlane;fontStyle=1;align=center;verticalAlign=top;childLayout=stackLayout;horizontal=1;startSize=26;horizontalStack=0;resizeParent=1;resizeParentMax=0;resizeLast=0;collapsible=1;marginBottom=0;whiteSpace=wrap;html=1;" parent="WIyWlLk6GJQsqaUBKTNV-1" vertex="1">
          <mxGeometry x="530" y="400" width="160" height="138" as="geometry" />
        </mxCell>
        <mxCell id="kQuobPmg_RCRlRh3Mcc4-30" value="- __value: Any" style="text;strokeColor=none;fillColor=none;align=left;verticalAlign=top;spacingLeft=4;spacingRight=4;overflow=hidden;rotatable=0;points=[[0,0.5],[1,0.5]];portConstraint=eastwest;whiteSpace=wrap;html=1;" parent="kQuobPmg_RCRlRh3Mcc4-29" vertex="1">
          <mxGeometry y="26" width="160" height="26" as="geometry" />
        </mxCell>
        <mxCell id="kQuobPmg_RCRlRh3Mcc4-31" value="" style="line;strokeWidth=1;fillColor=none;align=left;verticalAlign=middle;spacingTop=-1;spacingLeft=3;spacingRight=3;rotatable=0;labelPosition=right;points=[];portConstraint=eastwest;strokeColor=inherit;" parent="kQuobPmg_RCRlRh3Mcc4-29" vertex="1">
          <mxGeometry y="52" width="160" height="8" as="geometry" />
        </mxCell>
        <mxCell id="kQuobPmg_RCRlRh3Mcc4-32" value="- __init__(Any): None" style="text;strokeColor=none;fillColor=none;align=left;verticalAlign=top;spacingLeft=4;spacingRight=4;overflow=hidden;rotatable=0;points=[[0,0.5],[1,0.5]];portConstraint=eastwest;whiteSpace=wrap;html=1;" parent="kQuobPmg_RCRlRh3Mcc4-29" vertex="1">
          <mxGeometry y="60" width="160" height="26" as="geometry" />
        </mxCell>
        <mxCell id="kQuobPmg_RCRlRh3Mcc4-33" value="&lt;span style=&quot;background-color: initial;&quot;&gt;+ value(): str&lt;/span&gt;" style="text;strokeColor=none;fillColor=none;align=left;verticalAlign=top;spacingLeft=4;spacingRight=4;overflow=hidden;rotatable=0;points=[[0,0.5],[1,0.5]];portConstraint=eastwest;whiteSpace=wrap;html=1;" parent="kQuobPmg_RCRlRh3Mcc4-29" vertex="1">
          <mxGeometry y="86" width="160" height="26" as="geometry" />
        </mxCell>
        <mxCell id="kQuobPmg_RCRlRh3Mcc4-34" value="&lt;span style=&quot;background-color: initial;&quot;&gt;+ value(str): None&lt;/span&gt;" style="text;strokeColor=none;fillColor=none;align=left;verticalAlign=top;spacingLeft=4;spacingRight=4;overflow=hidden;rotatable=0;points=[[0,0.5],[1,0.5]];portConstraint=eastwest;whiteSpace=wrap;html=1;" parent="kQuobPmg_RCRlRh3Mcc4-29" vertex="1">
          <mxGeometry y="112" width="160" height="26" as="geometry" />
        </mxCell>
        <mxCell id="kQuobPmg_RCRlRh3Mcc4-37" value="&lt;span style=&quot;font-weight: normal;&quot;&gt;Birthday&lt;/span&gt;" style="swimlane;fontStyle=1;align=center;verticalAlign=top;childLayout=stackLayout;horizontal=1;startSize=26;horizontalStack=0;resizeParent=1;resizeParentMax=0;resizeLast=0;collapsible=1;marginBottom=0;whiteSpace=wrap;html=1;" parent="WIyWlLk6GJQsqaUBKTNV-1" vertex="1">
          <mxGeometry x="210" y="840" width="160" height="164" as="geometry" />
        </mxCell>
        <mxCell id="kQuobPmg_RCRlRh3Mcc4-38" value="- __value: Any" style="text;strokeColor=none;fillColor=none;align=left;verticalAlign=top;spacingLeft=4;spacingRight=4;overflow=hidden;rotatable=0;points=[[0,0.5],[1,0.5]];portConstraint=eastwest;whiteSpace=wrap;html=1;" parent="kQuobPmg_RCRlRh3Mcc4-37" vertex="1">
          <mxGeometry y="26" width="160" height="26" as="geometry" />
        </mxCell>
        <mxCell id="kQuobPmg_RCRlRh3Mcc4-39" value="" style="line;strokeWidth=1;fillColor=none;align=left;verticalAlign=middle;spacingTop=-1;spacingLeft=3;spacingRight=3;rotatable=0;labelPosition=right;points=[];portConstraint=eastwest;strokeColor=inherit;" parent="kQuobPmg_RCRlRh3Mcc4-37" vertex="1">
          <mxGeometry y="52" width="160" height="8" as="geometry" />
        </mxCell>
        <mxCell id="kQuobPmg_RCRlRh3Mcc4-40" value="- __init__(Any): None" style="text;strokeColor=none;fillColor=none;align=left;verticalAlign=top;spacingLeft=4;spacingRight=4;overflow=hidden;rotatable=0;points=[[0,0.5],[1,0.5]];portConstraint=eastwest;whiteSpace=wrap;html=1;" parent="kQuobPmg_RCRlRh3Mcc4-37" vertex="1">
          <mxGeometry y="60" width="160" height="26" as="geometry" />
        </mxCell>
        <mxCell id="kQuobPmg_RCRlRh3Mcc4-41" value="&lt;span style=&quot;background-color: initial;&quot;&gt;+ value(): str&lt;/span&gt;" style="text;strokeColor=none;fillColor=none;align=left;verticalAlign=top;spacingLeft=4;spacingRight=4;overflow=hidden;rotatable=0;points=[[0,0.5],[1,0.5]];portConstraint=eastwest;whiteSpace=wrap;html=1;" parent="kQuobPmg_RCRlRh3Mcc4-37" vertex="1">
          <mxGeometry y="86" width="160" height="26" as="geometry" />
        </mxCell>
        <mxCell id="kQuobPmg_RCRlRh3Mcc4-42" value="&lt;span style=&quot;background-color: initial;&quot;&gt;+ value(str): None&lt;/span&gt;" style="text;strokeColor=none;fillColor=none;align=left;verticalAlign=top;spacingLeft=4;spacingRight=4;overflow=hidden;rotatable=0;points=[[0,0.5],[1,0.5]];portConstraint=eastwest;whiteSpace=wrap;html=1;" parent="kQuobPmg_RCRlRh3Mcc4-37" vertex="1">
          <mxGeometry y="112" width="160" height="26" as="geometry" />
        </mxCell>
        <mxCell id="kQuobPmg_RCRlRh3Mcc4-44" value="&lt;span style=&quot;background-color: initial;&quot;&gt;+ to_datetime(): datetime&lt;/span&gt;" style="text;strokeColor=none;fillColor=none;align=left;verticalAlign=top;spacingLeft=4;spacingRight=4;overflow=hidden;rotatable=0;points=[[0,0.5],[1,0.5]];portConstraint=eastwest;whiteSpace=wrap;html=1;" parent="kQuobPmg_RCRlRh3Mcc4-37" vertex="1">
          <mxGeometry y="138" width="160" height="26" as="geometry" />
        </mxCell>
        <mxCell id="kQuobPmg_RCRlRh3Mcc4-43" value="" style="edgeStyle=orthogonalEdgeStyle;rounded=0;orthogonalLoop=1;jettySize=auto;html=1;endArrow=block;endFill=0;" parent="WIyWlLk6GJQsqaUBKTNV-1" edge="1">
          <mxGeometry relative="1" as="geometry">
            <mxPoint x="310" y="730" as="sourcePoint" />
            <mxPoint x="260" y="840" as="targetPoint" />
            <Array as="points">
              <mxPoint x="310" y="731" />
              <mxPoint x="260" y="731" />
            </Array>
          </mxGeometry>
        </mxCell>
        <mxCell id="kQuobPmg_RCRlRh3Mcc4-45" value="" style="edgeStyle=orthogonalEdgeStyle;rounded=0;orthogonalLoop=1;jettySize=auto;html=1;endArrow=block;endFill=0;entryX=0.5;entryY=0;entryDx=0;entryDy=0;" parent="WIyWlLk6GJQsqaUBKTNV-1" target="kQuobPmg_RCRlRh3Mcc4-46" edge="1">
          <mxGeometry relative="1" as="geometry">
            <mxPoint x="470" y="731" as="sourcePoint" />
            <mxPoint x="530" y="850" as="targetPoint" />
            <Array as="points">
              <mxPoint x="540" y="731" />
            </Array>
          </mxGeometry>
        </mxCell>
        <mxCell id="kQuobPmg_RCRlRh3Mcc4-46" value="&lt;span style=&quot;font-weight: normal;&quot;&gt;Address&lt;/span&gt;" style="swimlane;fontStyle=1;align=center;verticalAlign=top;childLayout=stackLayout;horizontal=1;startSize=26;horizontalStack=0;resizeParent=1;resizeParentMax=0;resizeLast=0;collapsible=1;marginBottom=0;whiteSpace=wrap;html=1;" parent="WIyWlLk6GJQsqaUBKTNV-1" vertex="1">
          <mxGeometry x="460" y="850" width="160" height="204" as="geometry" />
        </mxCell>
        <mxCell id="kQuobPmg_RCRlRh3Mcc4-47" value="- __value: Any" style="text;strokeColor=none;fillColor=none;align=left;verticalAlign=top;spacingLeft=4;spacingRight=4;overflow=hidden;rotatable=0;points=[[0,0.5],[1,0.5]];portConstraint=eastwest;whiteSpace=wrap;html=1;" parent="kQuobPmg_RCRlRh3Mcc4-46" vertex="1">
          <mxGeometry y="26" width="160" height="26" as="geometry" />
        </mxCell>
        <mxCell id="kQuobPmg_RCRlRh3Mcc4-48" value="" style="line;strokeWidth=1;fillColor=none;align=left;verticalAlign=middle;spacingTop=-1;spacingLeft=3;spacingRight=3;rotatable=0;labelPosition=right;points=[];portConstraint=eastwest;strokeColor=inherit;" parent="kQuobPmg_RCRlRh3Mcc4-46" vertex="1">
          <mxGeometry y="52" width="160" height="8" as="geometry" />
        </mxCell>
        <mxCell id="kQuobPmg_RCRlRh3Mcc4-49" value="- __init__(Any): None" style="text;strokeColor=none;fillColor=none;align=left;verticalAlign=top;spacingLeft=4;spacingRight=4;overflow=hidden;rotatable=0;points=[[0,0.5],[1,0.5]];portConstraint=eastwest;whiteSpace=wrap;html=1;" parent="kQuobPmg_RCRlRh3Mcc4-46" vertex="1">
          <mxGeometry y="60" width="160" height="26" as="geometry" />
        </mxCell>
        <mxCell id="kQuobPmg_RCRlRh3Mcc4-53" value="- __str__(Any): str" style="text;strokeColor=none;fillColor=none;align=left;verticalAlign=top;spacingLeft=4;spacingRight=4;overflow=hidden;rotatable=0;points=[[0,0.5],[1,0.5]];portConstraint=eastwest;whiteSpace=wrap;html=1;" parent="kQuobPmg_RCRlRh3Mcc4-46" vertex="1">
          <mxGeometry y="86" width="160" height="26" as="geometry" />
        </mxCell>
        <mxCell id="kQuobPmg_RCRlRh3Mcc4-50" value="&lt;span style=&quot;background-color: initial;&quot;&gt;+ value(): str&lt;/span&gt;" style="text;strokeColor=none;fillColor=none;align=left;verticalAlign=top;spacingLeft=4;spacingRight=4;overflow=hidden;rotatable=0;points=[[0,0.5],[1,0.5]];portConstraint=eastwest;whiteSpace=wrap;html=1;" parent="kQuobPmg_RCRlRh3Mcc4-46" vertex="1">
          <mxGeometry y="112" width="160" height="26" as="geometry" />
        </mxCell>
        <mxCell id="kQuobPmg_RCRlRh3Mcc4-51" value="&lt;span style=&quot;background-color: initial;&quot;&gt;+ value(str): None&lt;/span&gt;" style="text;strokeColor=none;fillColor=none;align=left;verticalAlign=top;spacingLeft=4;spacingRight=4;overflow=hidden;rotatable=0;points=[[0,0.5],[1,0.5]];portConstraint=eastwest;whiteSpace=wrap;html=1;" parent="kQuobPmg_RCRlRh3Mcc4-46" vertex="1">
          <mxGeometry y="138" width="160" height="26" as="geometry" />
        </mxCell>
        <mxCell id="kQuobPmg_RCRlRh3Mcc4-52" value="&lt;span style=&quot;background-color: initial;&quot;&gt;+ get_address_dict(): Dict[str, str]&lt;/span&gt;" style="text;strokeColor=none;fillColor=none;align=left;verticalAlign=top;spacingLeft=4;spacingRight=4;overflow=hidden;rotatable=0;points=[[0,0.5],[1,0.5]];portConstraint=eastwest;whiteSpace=wrap;html=1;" parent="kQuobPmg_RCRlRh3Mcc4-46" vertex="1">
          <mxGeometry y="164" width="160" height="40" as="geometry" />
        </mxCell>
        <mxCell id="kQuobPmg_RCRlRh3Mcc4-54" value="&lt;span style=&quot;font-weight: normal;&quot;&gt;Record&lt;/span&gt;" style="swimlane;fontStyle=1;align=center;verticalAlign=top;childLayout=stackLayout;horizontal=1;startSize=26;horizontalStack=0;resizeParent=1;resizeParentMax=0;resizeLast=0;collapsible=1;marginBottom=0;whiteSpace=wrap;html=1;" parent="WIyWlLk6GJQsqaUBKTNV-1" vertex="1">
          <mxGeometry x="140" width="260" height="576" as="geometry" />
        </mxCell>
        <mxCell id="kQuobPmg_RCRlRh3Mcc4-55" value="+ name: Name" style="text;strokeColor=none;fillColor=none;align=left;verticalAlign=top;spacingLeft=4;spacingRight=4;overflow=hidden;rotatable=0;points=[[0,0.5],[1,0.5]];portConstraint=eastwest;whiteSpace=wrap;html=1;" parent="kQuobPmg_RCRlRh3Mcc4-54" vertex="1">
          <mxGeometry y="26" width="260" height="26" as="geometry" />
        </mxCell>
        <mxCell id="kQuobPmg_RCRlRh3Mcc4-60" value="+ phones: list[Phone]" style="text;strokeColor=none;fillColor=none;align=left;verticalAlign=top;spacingLeft=4;spacingRight=4;overflow=hidden;rotatable=0;points=[[0,0.5],[1,0.5]];portConstraint=eastwest;whiteSpace=wrap;html=1;" parent="kQuobPmg_RCRlRh3Mcc4-54" vertex="1">
          <mxGeometry y="52" width="260" height="26" as="geometry" />
        </mxCell>
        <mxCell id="kQuobPmg_RCRlRh3Mcc4-61" value="+ birthday: Birthday" style="text;strokeColor=none;fillColor=none;align=left;verticalAlign=top;spacingLeft=4;spacingRight=4;overflow=hidden;rotatable=0;points=[[0,0.5],[1,0.5]];portConstraint=eastwest;whiteSpace=wrap;html=1;" parent="kQuobPmg_RCRlRh3Mcc4-54" vertex="1">
          <mxGeometry y="78" width="260" height="26" as="geometry" />
        </mxCell>
        <mxCell id="kQuobPmg_RCRlRh3Mcc4-62" value="+ address: Address" style="text;strokeColor=none;fillColor=none;align=left;verticalAlign=top;spacingLeft=4;spacingRight=4;overflow=hidden;rotatable=0;points=[[0,0.5],[1,0.5]];portConstraint=eastwest;whiteSpace=wrap;html=1;" parent="kQuobPmg_RCRlRh3Mcc4-54" vertex="1">
          <mxGeometry y="104" width="260" height="26" as="geometry" />
        </mxCell>
        <mxCell id="kQuobPmg_RCRlRh3Mcc4-63" value="+ emails: list[Email]" style="text;strokeColor=none;fillColor=none;align=left;verticalAlign=top;spacingLeft=4;spacingRight=4;overflow=hidden;rotatable=0;points=[[0,0.5],[1,0.5]];portConstraint=eastwest;whiteSpace=wrap;html=1;" parent="kQuobPmg_RCRlRh3Mcc4-54" vertex="1">
          <mxGeometry y="130" width="260" height="26" as="geometry" />
        </mxCell>
        <mxCell id="kQuobPmg_RCRlRh3Mcc4-56" value="" style="line;strokeWidth=1;fillColor=none;align=left;verticalAlign=middle;spacingTop=-1;spacingLeft=3;spacingRight=3;rotatable=0;labelPosition=right;points=[];portConstraint=eastwest;strokeColor=inherit;" parent="kQuobPmg_RCRlRh3Mcc4-54" vertex="1">
          <mxGeometry y="156" width="260" height="8" as="geometry" />
        </mxCell>
        <mxCell id="kQuobPmg_RCRlRh3Mcc4-57" value="- __init__(Any): None" style="text;strokeColor=none;fillColor=none;align=left;verticalAlign=top;spacingLeft=4;spacingRight=4;overflow=hidden;rotatable=0;points=[[0,0.5],[1,0.5]];portConstraint=eastwest;whiteSpace=wrap;html=1;" parent="kQuobPmg_RCRlRh3Mcc4-54" vertex="1">
          <mxGeometry y="164" width="260" height="26" as="geometry" />
        </mxCell>
        <mxCell id="kQuobPmg_RCRlRh3Mcc4-58" value="&lt;span style=&quot;background-color: initial;&quot;&gt;- __str__(): str&lt;/span&gt;" style="text;strokeColor=none;fillColor=none;align=left;verticalAlign=top;spacingLeft=4;spacingRight=4;overflow=hidden;rotatable=0;points=[[0,0.5],[1,0.5]];portConstraint=eastwest;whiteSpace=wrap;html=1;" parent="kQuobPmg_RCRlRh3Mcc4-54" vertex="1">
          <mxGeometry y="190" width="260" height="26" as="geometry" />
        </mxCell>
        <mxCell id="kQuobPmg_RCRlRh3Mcc4-59" value="&lt;span style=&quot;background-color: initial;&quot;&gt;- __repr__(str): str&lt;/span&gt;" style="text;strokeColor=none;fillColor=none;align=left;verticalAlign=top;spacingLeft=4;spacingRight=4;overflow=hidden;rotatable=0;points=[[0,0.5],[1,0.5]];portConstraint=eastwest;whiteSpace=wrap;html=1;" parent="kQuobPmg_RCRlRh3Mcc4-54" vertex="1">
          <mxGeometry y="216" width="260" height="26" as="geometry" />
        </mxCell>
        <mxCell id="kQuobPmg_RCRlRh3Mcc4-64" value="&lt;span style=&quot;background-color: initial;&quot;&gt;+ days_to_birthday(): int&lt;/span&gt;" style="text;strokeColor=none;fillColor=none;align=left;verticalAlign=top;spacingLeft=4;spacingRight=4;overflow=hidden;rotatable=1;points=[[0,0.5],[1,0.5]];portConstraint=eastwest;whiteSpace=wrap;html=1;movable=1;resizable=1;deletable=1;editable=1;locked=0;connectable=1;" parent="kQuobPmg_RCRlRh3Mcc4-54" vertex="1">
          <mxGeometry y="242" width="260" height="26" as="geometry" />
        </mxCell>
        <mxCell id="kQuobPmg_RCRlRh3Mcc4-65" value="&lt;span style=&quot;background-color: initial;&quot;&gt;+ get_phone_by_number(str):&amp;nbsp;&lt;/span&gt;Tuple[Any,int] | Tuple[None,None]" style="text;strokeColor=none;fillColor=none;align=left;verticalAlign=top;spacingLeft=4;spacingRight=4;overflow=hidden;rotatable=1;points=[[0,0.5],[1,0.5]];portConstraint=eastwest;whiteSpace=wrap;html=1;movable=1;resizable=1;deletable=1;editable=1;locked=0;connectable=1;" parent="kQuobPmg_RCRlRh3Mcc4-54" vertex="1">
          <mxGeometry y="268" width="260" height="42" as="geometry" />
        </mxCell>
        <mxCell id="kQuobPmg_RCRlRh3Mcc4-67" style="edgeStyle=orthogonalEdgeStyle;rounded=0;orthogonalLoop=1;jettySize=auto;html=1;exitX=1;exitY=0.5;exitDx=0;exitDy=0;" parent="kQuobPmg_RCRlRh3Mcc4-54" source="kQuobPmg_RCRlRh3Mcc4-62" target="kQuobPmg_RCRlRh3Mcc4-62" edge="1">
          <mxGeometry relative="1" as="geometry" />
        </mxCell>
        <mxCell id="kQuobPmg_RCRlRh3Mcc4-68" value="&lt;span style=&quot;background-color: initial;&quot;&gt;+ get_email_by_number(str):&amp;nbsp;&lt;/span&gt;Tuple[Any,int] | Tuple[None,None]" style="text;strokeColor=none;fillColor=none;align=left;verticalAlign=top;spacingLeft=4;spacingRight=4;overflow=hidden;rotatable=1;points=[[0,0.5],[1,0.5]];portConstraint=eastwest;whiteSpace=wrap;html=1;movable=1;resizable=1;deletable=1;editable=1;locked=0;connectable=1;" parent="kQuobPmg_RCRlRh3Mcc4-54" vertex="1">
          <mxGeometry y="310" width="260" height="42" as="geometry" />
        </mxCell>
        <mxCell id="kQuobPmg_RCRlRh3Mcc4-69" value="&lt;span style=&quot;background-color: initial;&quot;&gt;+ add_phone(str): str&lt;/span&gt;" style="text;strokeColor=none;fillColor=none;align=left;verticalAlign=top;spacingLeft=4;spacingRight=4;overflow=hidden;rotatable=1;points=[[0,0.5],[1,0.5]];portConstraint=eastwest;whiteSpace=wrap;html=1;movable=1;resizable=1;deletable=1;editable=1;locked=0;connectable=1;" parent="kQuobPmg_RCRlRh3Mcc4-54" vertex="1">
          <mxGeometry y="352" width="260" height="28" as="geometry" />
        </mxCell>
        <mxCell id="kQuobPmg_RCRlRh3Mcc4-70" value="&lt;span style=&quot;background-color: initial;&quot;&gt;+ edit_phone(str, str): None&lt;/span&gt;" style="text;strokeColor=none;fillColor=none;align=left;verticalAlign=top;spacingLeft=4;spacingRight=4;overflow=hidden;rotatable=1;points=[[0,0.5],[1,0.5]];portConstraint=eastwest;whiteSpace=wrap;html=1;movable=1;resizable=1;deletable=1;editable=1;locked=0;connectable=1;" parent="kQuobPmg_RCRlRh3Mcc4-54" vertex="1">
          <mxGeometry y="380" width="260" height="28" as="geometry" />
        </mxCell>
        <mxCell id="kQuobPmg_RCRlRh3Mcc4-71" value="&lt;span style=&quot;background-color: initial;&quot;&gt;+ edit_email(str, str): None&lt;/span&gt;" style="text;strokeColor=none;fillColor=none;align=left;verticalAlign=top;spacingLeft=4;spacingRight=4;overflow=hidden;rotatable=1;points=[[0,0.5],[1,0.5]];portConstraint=eastwest;whiteSpace=wrap;html=1;movable=1;resizable=1;deletable=1;editable=1;locked=0;connectable=1;" parent="kQuobPmg_RCRlRh3Mcc4-54" vertex="1">
          <mxGeometry y="408" width="260" height="28" as="geometry" />
        </mxCell>
        <mxCell id="kQuobPmg_RCRlRh3Mcc4-72" value="&lt;span style=&quot;background-color: initial;&quot;&gt;+ remove_phone(str): None&lt;/span&gt;" style="text;strokeColor=none;fillColor=none;align=left;verticalAlign=top;spacingLeft=4;spacingRight=4;overflow=hidden;rotatable=1;points=[[0,0.5],[1,0.5]];portConstraint=eastwest;whiteSpace=wrap;html=1;movable=1;resizable=1;deletable=1;editable=1;locked=0;connectable=1;" parent="kQuobPmg_RCRlRh3Mcc4-54" vertex="1">
          <mxGeometry y="436" width="260" height="28" as="geometry" />
        </mxCell>
        <mxCell id="kQuobPmg_RCRlRh3Mcc4-73" value="&lt;span style=&quot;background-color: initial;&quot;&gt;+ find_phone(str): Phone&lt;/span&gt;" style="text;strokeColor=none;fillColor=none;align=left;verticalAlign=top;spacingLeft=4;spacingRight=4;overflow=hidden;rotatable=1;points=[[0,0.5],[1,0.5]];portConstraint=eastwest;whiteSpace=wrap;html=1;movable=1;resizable=1;deletable=1;editable=1;locked=0;connectable=1;" parent="kQuobPmg_RCRlRh3Mcc4-54" vertex="1">
          <mxGeometry y="464" width="260" height="28" as="geometry" />
        </mxCell>
        <mxCell id="kQuobPmg_RCRlRh3Mcc4-74" value="&lt;span style=&quot;background-color: initial;&quot;&gt;+ add_birthday(str): str&lt;/span&gt;" style="text;strokeColor=none;fillColor=none;align=left;verticalAlign=top;spacingLeft=4;spacingRight=4;overflow=hidden;rotatable=1;points=[[0,0.5],[1,0.5]];portConstraint=eastwest;whiteSpace=wrap;html=1;movable=1;resizable=1;deletable=1;editable=1;locked=0;connectable=1;" parent="kQuobPmg_RCRlRh3Mcc4-54" vertex="1">
          <mxGeometry y="492" width="260" height="28" as="geometry" />
        </mxCell>
        <mxCell id="kQuobPmg_RCRlRh3Mcc4-75" value="&lt;span style=&quot;background-color: initial;&quot;&gt;+ add_address(list): str&lt;/span&gt;" style="text;strokeColor=none;fillColor=none;align=left;verticalAlign=top;spacingLeft=4;spacingRight=4;overflow=hidden;rotatable=1;points=[[0,0.5],[1,0.5]];portConstraint=eastwest;whiteSpace=wrap;html=1;movable=1;resizable=1;deletable=1;editable=1;locked=0;connectable=1;" parent="kQuobPmg_RCRlRh3Mcc4-54" vertex="1">
          <mxGeometry y="520" width="260" height="28" as="geometry" />
        </mxCell>
        <mxCell id="kQuobPmg_RCRlRh3Mcc4-76" value="&lt;span style=&quot;background-color: initial;&quot;&gt;+ add_email(str): str&lt;/span&gt;" style="text;strokeColor=none;fillColor=none;align=left;verticalAlign=top;spacingLeft=4;spacingRight=4;overflow=hidden;rotatable=1;points=[[0,0.5],[1,0.5]];portConstraint=eastwest;whiteSpace=wrap;html=1;movable=1;resizable=1;deletable=1;editable=1;locked=0;connectable=1;" parent="kQuobPmg_RCRlRh3Mcc4-54" vertex="1">
          <mxGeometry y="548" width="260" height="28" as="geometry" />
        </mxCell>
        <mxCell id="kQuobPmg_RCRlRh3Mcc4-84" value="1" style="endArrow=block;html=1;endSize=12;startArrow=diamondThin;startSize=14;startFill=1;edgeStyle=orthogonalEdgeStyle;align=left;verticalAlign=bottom;rounded=0;entryX=0.25;entryY=0;entryDx=0;entryDy=0;endFill=1;exitX=0;exitY=0.5;exitDx=0;exitDy=0;" parent="WIyWlLk6GJQsqaUBKTNV-1" source="kQuobPmg_RCRlRh3Mcc4-71" edge="1">
          <mxGeometry x="-1" y="3" relative="1" as="geometry">
            <mxPoint x="70" y="420" as="sourcePoint" />
            <mxPoint x="70" y="800" as="targetPoint" />
            <Array as="points">
              <mxPoint x="70" y="422" />
            </Array>
          </mxGeometry>
        </mxCell>
        <mxCell id="kQuobPmg_RCRlRh3Mcc4-86" value="1" style="endArrow=block;html=1;endSize=12;startArrow=diamondThin;startSize=14;startFill=1;edgeStyle=orthogonalEdgeStyle;align=left;verticalAlign=bottom;rounded=0;endFill=1;" parent="WIyWlLk6GJQsqaUBKTNV-1" edge="1">
          <mxGeometry x="-1" y="3" relative="1" as="geometry">
            <mxPoint x="420" y="280" as="sourcePoint" />
            <mxPoint x="760" y="794" as="targetPoint" />
            <Array as="points">
              <mxPoint x="403" y="280" />
              <mxPoint x="760" y="280" />
            </Array>
          </mxGeometry>
        </mxCell>
        <mxCell id="kQuobPmg_RCRlRh3Mcc4-89" value="" style="edgeStyle=orthogonalEdgeStyle;rounded=0;orthogonalLoop=1;jettySize=auto;html=1;endArrow=block;endFill=0;entryX=0;entryY=0.5;entryDx=0;entryDy=0;" parent="WIyWlLk6GJQsqaUBKTNV-1" target="kQuobPmg_RCRlRh3Mcc4-30" edge="1">
          <mxGeometry relative="1" as="geometry">
            <mxPoint x="440" y="641" as="sourcePoint" />
            <mxPoint x="440" y="440" as="targetPoint" />
            <Array as="points">
              <mxPoint x="440" y="439" />
            </Array>
          </mxGeometry>
        </mxCell>
        <mxCell id="kQuobPmg_RCRlRh3Mcc4-92" value="" style="edgeStyle=orthogonalEdgeStyle;rounded=0;orthogonalLoop=1;jettySize=auto;html=1;endArrow=block;endFill=0;exitX=-0.006;exitY=0.038;exitDx=0;exitDy=0;exitPerimeter=0;" parent="WIyWlLk6GJQsqaUBKTNV-1" source="kQuobPmg_RCRlRh3Mcc4-3" edge="1">
          <mxGeometry relative="1" as="geometry">
            <mxPoint x="170" y="700" as="sourcePoint" />
            <mxPoint x="120" y="800" as="targetPoint" />
            <Array as="points">
              <mxPoint x="120" y="701" />
            </Array>
          </mxGeometry>
        </mxCell>
        <mxCell id="kQuobPmg_RCRlRh3Mcc4-96" value="1" style="endArrow=block;html=1;endSize=12;startArrow=diamondThin;startSize=14;startFill=1;edgeStyle=orthogonalEdgeStyle;align=left;verticalAlign=bottom;rounded=0;endFill=1;entryX=1;entryY=0.5;entryDx=0;entryDy=0;exitX=1;exitY=0.5;exitDx=0;exitDy=0;" parent="WIyWlLk6GJQsqaUBKTNV-1" source="kQuobPmg_RCRlRh3Mcc4-58" target="kQuobPmg_RCRlRh3Mcc4-52" edge="1">
          <mxGeometry x="-1" y="3" relative="1" as="geometry">
            <mxPoint x="417" y="200" as="sourcePoint" />
            <mxPoint x="757" y="714" as="targetPoint" />
            <Array as="points">
              <mxPoint x="830" y="203" />
              <mxPoint x="830" y="1034" />
            </Array>
          </mxGeometry>
        </mxCell>
        <mxCell id="kQuobPmg_RCRlRh3Mcc4-97" value="1" style="endArrow=block;html=1;endSize=12;startArrow=diamondThin;startSize=14;startFill=1;edgeStyle=orthogonalEdgeStyle;align=left;verticalAlign=bottom;rounded=0;endFill=1;entryX=0.425;entryY=1.192;entryDx=0;entryDy=0;entryPerimeter=0;" parent="WIyWlLk6GJQsqaUBKTNV-1" target="kQuobPmg_RCRlRh3Mcc4-44" edge="1">
          <mxGeometry x="-0.9851" y="-14" relative="1" as="geometry">
            <mxPoint x="140" y="350" as="sourcePoint" />
            <mxPoint x="280" y="1080" as="targetPoint" />
            <Array as="points">
              <mxPoint x="-60" y="350" />
              <mxPoint x="-60" y="1040" />
              <mxPoint x="278" y="1040" />
            </Array>
            <mxPoint x="14" y="14" as="offset" />
          </mxGeometry>
        </mxCell>
        <mxCell id="kQuobPmg_RCRlRh3Mcc4-104" value="RecordAlreadyExistsException" style="swimlane;fontStyle=0;childLayout=stackLayout;horizontal=1;startSize=26;fillColor=none;horizontalStack=0;resizeParent=1;resizeParentMax=0;resizeLast=0;collapsible=1;marginBottom=0;whiteSpace=wrap;html=1;" parent="WIyWlLk6GJQsqaUBKTNV-1" vertex="1">
          <mxGeometry x="-1090" y="403" width="180" height="52" as="geometry" />
        </mxCell>
        <mxCell id="kQuobPmg_RCRlRh3Mcc4-111" value="&lt;span style=&quot;font-weight: normal;&quot;&gt;&lt;i&gt;SaveBase&lt;/i&gt;&lt;/span&gt;" style="swimlane;fontStyle=1;align=center;verticalAlign=top;childLayout=stackLayout;horizontal=1;startSize=26;horizontalStack=0;resizeParent=1;resizeParentMax=0;resizeLast=0;collapsible=1;marginBottom=0;whiteSpace=wrap;html=1;" parent="WIyWlLk6GJQsqaUBKTNV-1" vertex="1">
          <mxGeometry x="-390" y="160" width="160" height="138" as="geometry" />
        </mxCell>
        <mxCell id="kQuobPmg_RCRlRh3Mcc4-112" value="+ address: str" style="text;strokeColor=none;fillColor=none;align=left;verticalAlign=top;spacingLeft=4;spacingRight=4;overflow=hidden;rotatable=0;points=[[0,0.5],[1,0.5]];portConstraint=eastwest;whiteSpace=wrap;html=1;" parent="kQuobPmg_RCRlRh3Mcc4-111" vertex="1">
          <mxGeometry y="26" width="160" height="26" as="geometry" />
        </mxCell>
        <mxCell id="kQuobPmg_RCRlRh3Mcc4-113" value="" style="line;strokeWidth=1;fillColor=none;align=left;verticalAlign=middle;spacingTop=-1;spacingLeft=3;spacingRight=3;rotatable=0;labelPosition=right;points=[];portConstraint=eastwest;strokeColor=inherit;" parent="kQuobPmg_RCRlRh3Mcc4-111" vertex="1">
          <mxGeometry y="52" width="160" height="8" as="geometry" />
        </mxCell>
        <mxCell id="kQuobPmg_RCRlRh3Mcc4-114" value="- __init__(str): None" style="text;strokeColor=none;fillColor=none;align=left;verticalAlign=top;spacingLeft=4;spacingRight=4;overflow=hidden;rotatable=0;points=[[0,0.5],[1,0.5]];portConstraint=eastwest;whiteSpace=wrap;html=1;" parent="kQuobPmg_RCRlRh3Mcc4-111" vertex="1">
          <mxGeometry y="60" width="160" height="26" as="geometry" />
        </mxCell>
        <mxCell id="kQuobPmg_RCRlRh3Mcc4-115" value="+ save_info(str, dict): None" style="text;strokeColor=none;fillColor=none;align=left;verticalAlign=top;spacingLeft=4;spacingRight=4;overflow=hidden;rotatable=0;points=[[0,0.5],[1,0.5]];portConstraint=eastwest;whiteSpace=wrap;html=1;" parent="kQuobPmg_RCRlRh3Mcc4-111" vertex="1">
          <mxGeometry y="86" width="160" height="26" as="geometry" />
        </mxCell>
        <mxCell id="kQuobPmg_RCRlRh3Mcc4-116" value="+ read_info(str): Any" style="text;strokeColor=none;fillColor=none;align=left;verticalAlign=top;spacingLeft=4;spacingRight=4;overflow=hidden;rotatable=0;points=[[0,0.5],[1,0.5]];portConstraint=eastwest;whiteSpace=wrap;html=1;" parent="kQuobPmg_RCRlRh3Mcc4-111" vertex="1">
          <mxGeometry y="112" width="160" height="26" as="geometry" />
        </mxCell>
        <mxCell id="kQuobPmg_RCRlRh3Mcc4-117" value="" style="edgeStyle=orthogonalEdgeStyle;rounded=0;orthogonalLoop=1;jettySize=auto;html=1;endArrow=block;endFill=0;" parent="WIyWlLk6GJQsqaUBKTNV-1" edge="1">
          <mxGeometry relative="1" as="geometry">
            <mxPoint x="-310.5" y="298" as="sourcePoint" />
            <mxPoint x="-310" y="360" as="targetPoint" />
            <Array as="points">
              <mxPoint x="-310.5" y="298" />
            </Array>
          </mxGeometry>
        </mxCell>
        <mxCell id="kQuobPmg_RCRlRh3Mcc4-118" value="&lt;span style=&quot;font-weight: normal;&quot;&gt;SaveAddressBookOnDisk&lt;/span&gt;" style="swimlane;fontStyle=1;align=center;verticalAlign=top;childLayout=stackLayout;horizontal=1;startSize=26;horizontalStack=0;resizeParent=1;resizeParentMax=0;resizeLast=0;collapsible=1;marginBottom=0;whiteSpace=wrap;html=1;" parent="WIyWlLk6GJQsqaUBKTNV-1" vertex="1">
          <mxGeometry x="-390" y="360" width="160" height="138" as="geometry">
            <mxRectangle x="-10" y="800" width="70" height="30" as="alternateBounds" />
          </mxGeometry>
        </mxCell>
        <mxCell id="kQuobPmg_RCRlRh3Mcc4-119" value="+ address: str" style="text;strokeColor=none;fillColor=none;align=left;verticalAlign=top;spacingLeft=4;spacingRight=4;overflow=hidden;rotatable=0;points=[[0,0.5],[1,0.5]];portConstraint=eastwest;whiteSpace=wrap;html=1;" parent="kQuobPmg_RCRlRh3Mcc4-118" vertex="1">
          <mxGeometry y="26" width="160" height="26" as="geometry" />
        </mxCell>
        <mxCell id="kQuobPmg_RCRlRh3Mcc4-120" value="" style="line;strokeWidth=1;fillColor=none;align=left;verticalAlign=middle;spacingTop=-1;spacingLeft=3;spacingRight=3;rotatable=0;labelPosition=right;points=[];portConstraint=eastwest;strokeColor=inherit;" parent="kQuobPmg_RCRlRh3Mcc4-118" vertex="1">
          <mxGeometry y="52" width="160" height="8" as="geometry" />
        </mxCell>
        <mxCell id="kQuobPmg_RCRlRh3Mcc4-121" value="- __init__(Any): None" style="text;strokeColor=none;fillColor=none;align=left;verticalAlign=top;spacingLeft=4;spacingRight=4;overflow=hidden;rotatable=0;points=[[0,0.5],[1,0.5]];portConstraint=eastwest;whiteSpace=wrap;html=1;" parent="kQuobPmg_RCRlRh3Mcc4-118" vertex="1">
          <mxGeometry y="60" width="160" height="26" as="geometry" />
        </mxCell>
        <mxCell id="kQuobPmg_RCRlRh3Mcc4-122" value="+ save_info(str, dict): None" style="text;strokeColor=none;fillColor=none;align=left;verticalAlign=top;spacingLeft=4;spacingRight=4;overflow=hidden;rotatable=0;points=[[0,0.5],[1,0.5]];portConstraint=eastwest;whiteSpace=wrap;html=1;" parent="kQuobPmg_RCRlRh3Mcc4-118" vertex="1">
          <mxGeometry y="86" width="160" height="26" as="geometry" />
        </mxCell>
        <mxCell id="kQuobPmg_RCRlRh3Mcc4-123" value="+ read_info(str): dict" style="text;strokeColor=none;fillColor=none;align=left;verticalAlign=top;spacingLeft=4;spacingRight=4;overflow=hidden;rotatable=0;points=[[0,0.5],[1,0.5]];portConstraint=eastwest;whiteSpace=wrap;html=1;" parent="kQuobPmg_RCRlRh3Mcc4-118" vertex="1">
          <mxGeometry y="112" width="160" height="26" as="geometry" />
        </mxCell>
        <mxCell id="kQuobPmg_RCRlRh3Mcc4-130" value="&lt;span style=&quot;font-weight: normal;&quot;&gt;AddressBook&lt;/span&gt;" style="swimlane;fontStyle=1;align=center;verticalAlign=top;childLayout=stackLayout;horizontal=1;startSize=26;horizontalStack=0;resizeParent=1;resizeParentMax=0;resizeLast=0;collapsible=1;marginBottom=0;whiteSpace=wrap;html=1;" parent="WIyWlLk6GJQsqaUBKTNV-1" vertex="1">
          <mxGeometry x="-760" y="160" width="270" height="310" as="geometry" />
        </mxCell>
        <mxCell id="kQuobPmg_RCRlRh3Mcc4-131" value="+ data: dict" style="text;strokeColor=none;fillColor=none;align=left;verticalAlign=top;spacingLeft=4;spacingRight=4;overflow=hidden;rotatable=0;points=[[0,0.5],[1,0.5]];portConstraint=eastwest;whiteSpace=wrap;html=1;" parent="kQuobPmg_RCRlRh3Mcc4-130" vertex="1">
          <mxGeometry y="26" width="270" height="26" as="geometry" />
        </mxCell>
        <mxCell id="kQuobPmg_RCRlRh3Mcc4-134" value="+ data_save_tool: SaveBase" style="text;strokeColor=none;fillColor=none;align=left;verticalAlign=top;spacingLeft=4;spacingRight=4;overflow=hidden;rotatable=0;points=[[0,0.5],[1,0.5]];portConstraint=eastwest;whiteSpace=wrap;html=1;" parent="kQuobPmg_RCRlRh3Mcc4-130" vertex="1">
          <mxGeometry y="52" width="270" height="26" as="geometry" />
        </mxCell>
        <mxCell id="kQuobPmg_RCRlRh3Mcc4-132" value="" style="line;strokeWidth=1;fillColor=none;align=left;verticalAlign=middle;spacingTop=-1;spacingLeft=3;spacingRight=3;rotatable=0;labelPosition=right;points=[];portConstraint=eastwest;strokeColor=inherit;" parent="kQuobPmg_RCRlRh3Mcc4-130" vertex="1">
          <mxGeometry y="78" width="270" height="8" as="geometry" />
        </mxCell>
        <mxCell id="kQuobPmg_RCRlRh3Mcc4-133" value="- __init__(): SaveBase" style="text;strokeColor=none;fillColor=none;align=left;verticalAlign=top;spacingLeft=4;spacingRight=4;overflow=hidden;rotatable=0;points=[[0,0.5],[1,0.5]];portConstraint=eastwest;whiteSpace=wrap;html=1;" parent="kQuobPmg_RCRlRh3Mcc4-130" vertex="1">
          <mxGeometry y="86" width="270" height="26" as="geometry" />
        </mxCell>
        <mxCell id="kQuobPmg_RCRlRh3Mcc4-135" value="+ iterator(int): Generator" style="text;strokeColor=none;fillColor=none;align=left;verticalAlign=top;spacingLeft=4;spacingRight=4;overflow=hidden;rotatable=0;points=[[0,0.5],[1,0.5]];portConstraint=eastwest;whiteSpace=wrap;html=1;" parent="kQuobPmg_RCRlRh3Mcc4-130" vertex="1">
          <mxGeometry y="112" width="270" height="26" as="geometry" />
        </mxCell>
        <mxCell id="kQuobPmg_RCRlRh3Mcc4-136" value="+ add_record(Record): None" style="text;strokeColor=none;fillColor=none;align=left;verticalAlign=top;spacingLeft=4;spacingRight=4;overflow=hidden;rotatable=0;points=[[0,0.5],[1,0.5]];portConstraint=eastwest;whiteSpace=wrap;html=1;" parent="kQuobPmg_RCRlRh3Mcc4-130" vertex="1">
          <mxGeometry y="138" width="270" height="26" as="geometry" />
        </mxCell>
        <mxCell id="kQuobPmg_RCRlRh3Mcc4-137" value="+ update_record(Record): None" style="text;strokeColor=none;fillColor=none;align=left;verticalAlign=top;spacingLeft=4;spacingRight=4;overflow=hidden;rotatable=0;points=[[0,0.5],[1,0.5]];portConstraint=eastwest;whiteSpace=wrap;html=1;" parent="kQuobPmg_RCRlRh3Mcc4-130" vertex="1">
          <mxGeometry y="164" width="270" height="26" as="geometry" />
        </mxCell>
        <mxCell id="kQuobPmg_RCRlRh3Mcc4-138" value="+ find(str): Record" style="text;strokeColor=none;fillColor=none;align=left;verticalAlign=top;spacingLeft=4;spacingRight=4;overflow=hidden;rotatable=0;points=[[0,0.5],[1,0.5]];portConstraint=eastwest;whiteSpace=wrap;html=1;" parent="kQuobPmg_RCRlRh3Mcc4-130" vertex="1">
          <mxGeometry y="190" width="270" height="26" as="geometry" />
        </mxCell>
        <mxCell id="kQuobPmg_RCRlRh3Mcc4-139" value="+ search_contact(str): Generator" style="text;strokeColor=none;fillColor=none;align=left;verticalAlign=top;spacingLeft=4;spacingRight=4;overflow=hidden;rotatable=0;points=[[0,0.5],[1,0.5]];portConstraint=eastwest;whiteSpace=wrap;html=1;" parent="kQuobPmg_RCRlRh3Mcc4-130" vertex="1">
          <mxGeometry y="216" width="270" height="26" as="geometry" />
        </mxCell>
        <mxCell id="kQuobPmg_RCRlRh3Mcc4-140" value="+ delete(str): None" style="text;strokeColor=none;fillColor=none;align=left;verticalAlign=top;spacingLeft=4;spacingRight=4;overflow=hidden;rotatable=0;points=[[0,0.5],[1,0.5]];portConstraint=eastwest;whiteSpace=wrap;html=1;" parent="kQuobPmg_RCRlRh3Mcc4-130" vertex="1">
          <mxGeometry y="242" width="270" height="26" as="geometry" />
        </mxCell>
        <mxCell id="kQuobPmg_RCRlRh3Mcc4-141" value="+ get_contacts_upcoming_birthdays(int): Generator" style="text;strokeColor=none;fillColor=none;align=left;verticalAlign=top;spacingLeft=4;spacingRight=4;overflow=hidden;rotatable=0;points=[[0,0.5],[1,0.5]];portConstraint=eastwest;whiteSpace=wrap;html=1;" parent="kQuobPmg_RCRlRh3Mcc4-130" vertex="1">
          <mxGeometry y="268" width="270" height="42" as="geometry" />
        </mxCell>
        <mxCell id="kQuobPmg_RCRlRh3Mcc4-142" value="" style="endArrow=classic;endFill=1;endSize=12;html=1;rounded=0;entryX=0.001;entryY=0.738;entryDx=0;entryDy=0;entryPerimeter=0;exitX=1.004;exitY=1.015;exitDx=0;exitDy=0;exitPerimeter=0;" parent="WIyWlLk6GJQsqaUBKTNV-1" source="kQuobPmg_RCRlRh3Mcc4-134" target="kQuobPmg_RCRlRh3Mcc4-114" edge="1">
          <mxGeometry width="160" relative="1" as="geometry">
            <mxPoint x="-480" y="240" as="sourcePoint" />
            <mxPoint x="-330" y="314.6" as="targetPoint" />
          </mxGeometry>
        </mxCell>
        <mxCell id="kQuobPmg_RCRlRh3Mcc4-144" value="&lt;span style=&quot;font-weight: normal;&quot;&gt;collections.UserDict&lt;/span&gt;" style="swimlane;fontStyle=1;align=center;verticalAlign=top;childLayout=stackLayout;horizontal=1;startSize=26;horizontalStack=0;resizeParent=1;resizeParentMax=0;resizeLast=0;collapsible=1;marginBottom=0;whiteSpace=wrap;html=1;" parent="WIyWlLk6GJQsqaUBKTNV-1" vertex="1">
          <mxGeometry x="-690" width="160" height="60" as="geometry" />
        </mxCell>
        <mxCell id="kQuobPmg_RCRlRh3Mcc4-145" value="+ data: dict" style="text;strokeColor=none;fillColor=none;align=left;verticalAlign=top;spacingLeft=4;spacingRight=4;overflow=hidden;rotatable=0;points=[[0,0.5],[1,0.5]];portConstraint=eastwest;whiteSpace=wrap;html=1;" parent="kQuobPmg_RCRlRh3Mcc4-144" vertex="1">
          <mxGeometry y="26" width="160" height="26" as="geometry" />
        </mxCell>
        <mxCell id="kQuobPmg_RCRlRh3Mcc4-146" value="" style="line;strokeWidth=1;fillColor=none;align=left;verticalAlign=middle;spacingTop=-1;spacingLeft=3;spacingRight=3;rotatable=0;labelPosition=right;points=[];portConstraint=eastwest;strokeColor=inherit;" parent="kQuobPmg_RCRlRh3Mcc4-144" vertex="1">
          <mxGeometry y="52" width="160" height="8" as="geometry" />
        </mxCell>
        <mxCell id="kQuobPmg_RCRlRh3Mcc4-148" value="" style="edgeStyle=orthogonalEdgeStyle;rounded=0;orthogonalLoop=1;jettySize=auto;html=1;endArrow=block;endFill=0;" parent="WIyWlLk6GJQsqaUBKTNV-1" edge="1">
          <mxGeometry relative="1" as="geometry">
            <mxPoint x="-620" y="60" as="sourcePoint" />
            <mxPoint x="-620" y="160" as="targetPoint" />
            <Array as="points">
              <mxPoint x="-619.56" y="97" />
              <mxPoint x="-619.56" y="97" />
            </Array>
          </mxGeometry>
        </mxCell>
        <mxCell id="kQuobPmg_RCRlRh3Mcc4-150" value="&lt;span style=&quot;font-weight: normal;&quot;&gt;FormatStr&lt;/span&gt;" style="swimlane;fontStyle=1;align=center;verticalAlign=top;childLayout=stackLayout;horizontal=1;startSize=26;horizontalStack=0;resizeParent=1;resizeParentMax=0;resizeLast=0;collapsible=1;marginBottom=0;whiteSpace=wrap;html=1;" parent="WIyWlLk6GJQsqaUBKTNV-1" vertex="1">
          <mxGeometry x="-1170" width="250" height="112" as="geometry" />
        </mxCell>
        <mxCell id="kQuobPmg_RCRlRh3Mcc4-152" value="" style="line;strokeWidth=1;fillColor=none;align=left;verticalAlign=middle;spacingTop=-1;spacingLeft=3;spacingRight=3;rotatable=0;labelPosition=right;points=[];portConstraint=eastwest;strokeColor=inherit;" parent="kQuobPmg_RCRlRh3Mcc4-150" vertex="1">
          <mxGeometry y="26" width="250" height="8" as="geometry" />
        </mxCell>
        <mxCell id="kQuobPmg_RCRlRh3Mcc4-153" value="+ get_formatted_headers(): str" style="text;strokeColor=none;fillColor=none;align=left;verticalAlign=top;spacingLeft=4;spacingRight=4;overflow=hidden;rotatable=0;points=[[0,0.5],[1,0.5]];portConstraint=eastwest;whiteSpace=wrap;html=1;" parent="kQuobPmg_RCRlRh3Mcc4-150" vertex="1">
          <mxGeometry y="34" width="250" height="26" as="geometry" />
        </mxCell>
        <mxCell id="kQuobPmg_RCRlRh3Mcc4-154" value="+ get_formatted_headers_birthdays(): str" style="text;strokeColor=none;fillColor=none;align=left;verticalAlign=top;spacingLeft=4;spacingRight=4;overflow=hidden;rotatable=0;points=[[0,0.5],[1,0.5]];portConstraint=eastwest;whiteSpace=wrap;html=1;" parent="kQuobPmg_RCRlRh3Mcc4-150" vertex="1">
          <mxGeometry y="60" width="250" height="26" as="geometry" />
        </mxCell>
        <mxCell id="kQuobPmg_RCRlRh3Mcc4-155" value="+ show_address_book(Generator): str" style="text;strokeColor=none;fillColor=none;align=left;verticalAlign=top;spacingLeft=4;spacingRight=4;overflow=hidden;rotatable=0;points=[[0,0.5],[1,0.5]];portConstraint=eastwest;whiteSpace=wrap;html=1;" parent="kQuobPmg_RCRlRh3Mcc4-150" vertex="1">
          <mxGeometry y="86" width="250" height="26" as="geometry" />
        </mxCell>
        <mxCell id="kQuobPmg_RCRlRh3Mcc4-158" value="DATE_FORMAT: str" style="label;fontStyle=0;strokeColor=none;fillColor=none;align=left;verticalAlign=top;overflow=hidden;spacingLeft=28;spacingRight=4;rotatable=0;points=[[0,0.5],[1,0.5]];portConstraint=eastwest;imageWidth=16;imageHeight=16;whiteSpace=wrap;html=1;image=img/clipart/Gear_128x128.png" parent="WIyWlLk6GJQsqaUBKTNV-1" vertex="1">
          <mxGeometry x="210" y="1080" width="190" height="26" as="geometry" />
        </mxCell>
        <mxCell id="kQuobPmg_RCRlRh3Mcc4-161" value="&lt;span style=&quot;font-weight: normal;&quot;&gt;Bot&lt;/span&gt;" style="swimlane;fontStyle=1;align=center;verticalAlign=top;childLayout=stackLayout;horizontal=1;startSize=26;horizontalStack=0;resizeParent=1;resizeParentMax=0;resizeLast=0;collapsible=1;marginBottom=0;whiteSpace=wrap;html=1;" parent="WIyWlLk6GJQsqaUBKTNV-1" vertex="1">
          <mxGeometry x="-1520" width="240" height="720" as="geometry" />
        </mxCell>
        <mxCell id="kQuobPmg_RCRlRh3Mcc4-162" value="+ contacts: AddressBook" style="text;strokeColor=none;fillColor=none;align=left;verticalAlign=top;spacingLeft=4;spacingRight=4;overflow=hidden;rotatable=0;points=[[0,0.5],[1,0.5]];portConstraint=eastwest;whiteSpace=wrap;html=1;" parent="kQuobPmg_RCRlRh3Mcc4-161" vertex="1">
          <mxGeometry y="26" width="240" height="26" as="geometry" />
        </mxCell>
        <mxCell id="kQuobPmg_RCRlRh3Mcc4-188" value="+ COMMANDS: Dict[str,callable]" style="text;strokeColor=none;fillColor=none;align=left;verticalAlign=top;spacingLeft=4;spacingRight=4;overflow=hidden;rotatable=0;points=[[0,0.5],[1,0.5]];portConstraint=eastwest;whiteSpace=wrap;html=1;" parent="kQuobPmg_RCRlRh3Mcc4-161" vertex="1">
          <mxGeometry y="52" width="240" height="26" as="geometry" />
        </mxCell>
        <mxCell id="kQuobPmg_RCRlRh3Mcc4-163" value="" style="line;strokeWidth=1;fillColor=none;align=left;verticalAlign=middle;spacingTop=-1;spacingLeft=3;spacingRight=3;rotatable=0;labelPosition=right;points=[];portConstraint=eastwest;strokeColor=inherit;" parent="kQuobPmg_RCRlRh3Mcc4-161" vertex="1">
          <mxGeometry y="78" width="240" height="8" as="geometry" />
        </mxCell>
        <mxCell id="kQuobPmg_RCRlRh3Mcc4-164" value="+ input_error(callable): callable" style="text;strokeColor=none;fillColor=none;align=left;verticalAlign=top;spacingLeft=4;spacingRight=4;overflow=hidden;rotatable=0;points=[[0,0.5],[1,0.5]];portConstraint=eastwest;whiteSpace=wrap;html=1;" parent="kQuobPmg_RCRlRh3Mcc4-161" vertex="1">
          <mxGeometry y="86" width="240" height="26" as="geometry" />
        </mxCell>
        <mxCell id="kQuobPmg_RCRlRh3Mcc4-166" value="+ parse_cli_command(str): Tuple[str,callable,List[str]]" style="text;strokeColor=none;fillColor=none;align=left;verticalAlign=top;spacingLeft=4;spacingRight=4;overflow=hidden;rotatable=0;points=[[0,0.5],[1,0.5]];portConstraint=eastwest;whiteSpace=wrap;html=1;" parent="kQuobPmg_RCRlRh3Mcc4-161" vertex="1">
          <mxGeometry y="112" width="240" height="38" as="geometry" />
        </mxCell>
        <mxCell id="kQuobPmg_RCRlRh3Mcc4-167" value="+ hello(): str" style="text;strokeColor=none;fillColor=none;align=left;verticalAlign=top;spacingLeft=4;spacingRight=4;overflow=hidden;rotatable=0;points=[[0,0.5],[1,0.5]];portConstraint=eastwest;whiteSpace=wrap;html=1;" parent="kQuobPmg_RCRlRh3Mcc4-161" vertex="1">
          <mxGeometry y="150" width="240" height="30" as="geometry" />
        </mxCell>
        <mxCell id="kQuobPmg_RCRlRh3Mcc4-168" value="+ add_contact(*tuple): str" style="text;strokeColor=none;fillColor=none;align=left;verticalAlign=top;spacingLeft=4;spacingRight=4;overflow=hidden;rotatable=0;points=[[0,0.5],[1,0.5]];portConstraint=eastwest;whiteSpace=wrap;html=1;" parent="kQuobPmg_RCRlRh3Mcc4-161" vertex="1">
          <mxGeometry y="180" width="240" height="30" as="geometry" />
        </mxCell>
        <mxCell id="kQuobPmg_RCRlRh3Mcc4-169" value="+ delete_contact(*tuple): str" style="text;strokeColor=none;fillColor=none;align=left;verticalAlign=top;spacingLeft=4;spacingRight=4;overflow=hidden;rotatable=0;points=[[0,0.5],[1,0.5]];portConstraint=eastwest;whiteSpace=wrap;html=1;" parent="kQuobPmg_RCRlRh3Mcc4-161" vertex="1">
          <mxGeometry y="210" width="240" height="30" as="geometry" />
        </mxCell>
        <mxCell id="kQuobPmg_RCRlRh3Mcc4-170" value="+ change_phone(*tuple): str" style="text;strokeColor=none;fillColor=none;align=left;verticalAlign=top;spacingLeft=4;spacingRight=4;overflow=hidden;rotatable=0;points=[[0,0.5],[1,0.5]];portConstraint=eastwest;whiteSpace=wrap;html=1;" parent="kQuobPmg_RCRlRh3Mcc4-161" vertex="1">
          <mxGeometry y="240" width="240" height="30" as="geometry" />
        </mxCell>
        <mxCell id="kQuobPmg_RCRlRh3Mcc4-171" value="+ update_birthday(*tuple): str" style="text;strokeColor=none;fillColor=none;align=left;verticalAlign=top;spacingLeft=4;spacingRight=4;overflow=hidden;rotatable=0;points=[[0,0.5],[1,0.5]];portConstraint=eastwest;whiteSpace=wrap;html=1;" parent="kQuobPmg_RCRlRh3Mcc4-161" vertex="1">
          <mxGeometry y="270" width="240" height="30" as="geometry" />
        </mxCell>
        <mxCell id="kQuobPmg_RCRlRh3Mcc4-172" value="+ find_contact_phone(*tuple): str" style="text;strokeColor=none;fillColor=none;align=left;verticalAlign=top;spacingLeft=4;spacingRight=4;overflow=hidden;rotatable=0;points=[[0,0.5],[1,0.5]];portConstraint=eastwest;whiteSpace=wrap;html=1;" parent="kQuobPmg_RCRlRh3Mcc4-161" vertex="1">
          <mxGeometry y="300" width="240" height="30" as="geometry" />
        </mxCell>
        <mxCell id="kQuobPmg_RCRlRh3Mcc4-173" value="+ show_all(*tuple): str" style="text;strokeColor=none;fillColor=none;align=left;verticalAlign=top;spacingLeft=4;spacingRight=4;overflow=hidden;rotatable=0;points=[[0,0.5],[1,0.5]];portConstraint=eastwest;whiteSpace=wrap;html=1;" parent="kQuobPmg_RCRlRh3Mcc4-161" vertex="1">
          <mxGeometry y="330" width="240" height="30" as="geometry" />
        </mxCell>
        <mxCell id="kQuobPmg_RCRlRh3Mcc4-174" value="+ search_contact(*tuple): str" style="text;strokeColor=none;fillColor=none;align=left;verticalAlign=top;spacingLeft=4;spacingRight=4;overflow=hidden;rotatable=0;points=[[0,0.5],[1,0.5]];portConstraint=eastwest;whiteSpace=wrap;html=1;" parent="kQuobPmg_RCRlRh3Mcc4-161" vertex="1">
          <mxGeometry y="360" width="240" height="30" as="geometry" />
        </mxCell>
        <mxCell id="kQuobPmg_RCRlRh3Mcc4-175" value="+ add_phone(*tuple): str" style="text;strokeColor=none;fillColor=none;align=left;verticalAlign=top;spacingLeft=4;spacingRight=4;overflow=hidden;rotatable=0;points=[[0,0.5],[1,0.5]];portConstraint=eastwest;whiteSpace=wrap;html=1;" parent="kQuobPmg_RCRlRh3Mcc4-161" vertex="1">
          <mxGeometry y="390" width="240" height="30" as="geometry" />
        </mxCell>
        <mxCell id="kQuobPmg_RCRlRh3Mcc4-176" value="+ add_address(*tuple): str" style="text;strokeColor=none;fillColor=none;align=left;verticalAlign=top;spacingLeft=4;spacingRight=4;overflow=hidden;rotatable=0;points=[[0,0.5],[1,0.5]];portConstraint=eastwest;whiteSpace=wrap;html=1;" parent="kQuobPmg_RCRlRh3Mcc4-161" vertex="1">
          <mxGeometry y="420" width="240" height="30" as="geometry" />
        </mxCell>
        <mxCell id="kQuobPmg_RCRlRh3Mcc4-177" value="+ add_email(*tuple): str" style="text;strokeColor=none;fillColor=none;align=left;verticalAlign=top;spacingLeft=4;spacingRight=4;overflow=hidden;rotatable=0;points=[[0,0.5],[1,0.5]];portConstraint=eastwest;whiteSpace=wrap;html=1;" parent="kQuobPmg_RCRlRh3Mcc4-161" vertex="1">
          <mxGeometry y="450" width="240" height="30" as="geometry" />
        </mxCell>
        <mxCell id="kQuobPmg_RCRlRh3Mcc4-178" value="+ change_email(*tuple): str" style="text;strokeColor=none;fillColor=none;align=left;verticalAlign=top;spacingLeft=4;spacingRight=4;overflow=hidden;rotatable=0;points=[[0,0.5],[1,0.5]];portConstraint=eastwest;whiteSpace=wrap;html=1;" parent="kQuobPmg_RCRlRh3Mcc4-161" vertex="1">
          <mxGeometry y="480" width="240" height="30" as="geometry" />
        </mxCell>
        <mxCell id="kQuobPmg_RCRlRh3Mcc4-179" value="+ change_address(*tuple): str" style="text;strokeColor=none;fillColor=none;align=left;verticalAlign=top;spacingLeft=4;spacingRight=4;overflow=hidden;rotatable=0;points=[[0,0.5],[1,0.5]];portConstraint=eastwest;whiteSpace=wrap;html=1;" parent="kQuobPmg_RCRlRh3Mcc4-161" vertex="1">
          <mxGeometry y="510" width="240" height="30" as="geometry" />
        </mxCell>
        <mxCell id="kQuobPmg_RCRlRh3Mcc4-180" value="+ change_name(*tuple): str" style="text;strokeColor=none;fillColor=none;align=left;verticalAlign=top;spacingLeft=4;spacingRight=4;overflow=hidden;rotatable=0;points=[[0,0.5],[1,0.5]];portConstraint=eastwest;whiteSpace=wrap;html=1;" parent="kQuobPmg_RCRlRh3Mcc4-161" vertex="1">
          <mxGeometry y="540" width="240" height="30" as="geometry" />
        </mxCell>
        <mxCell id="kQuobPmg_RCRlRh3Mcc4-181" value="+ good_bye(): str" style="text;strokeColor=none;fillColor=none;align=left;verticalAlign=top;spacingLeft=4;spacingRight=4;overflow=hidden;rotatable=0;points=[[0,0.5],[1,0.5]];portConstraint=eastwest;whiteSpace=wrap;html=1;" parent="kQuobPmg_RCRlRh3Mcc4-161" vertex="1">
          <mxGeometry y="570" width="240" height="30" as="geometry" />
        </mxCell>
        <mxCell id="kQuobPmg_RCRlRh3Mcc4-183" value="+ show_days_to_birthday(*tuple): str" style="text;strokeColor=none;fillColor=none;align=left;verticalAlign=top;spacingLeft=4;spacingRight=4;overflow=hidden;rotatable=0;points=[[0,0.5],[1,0.5]];portConstraint=eastwest;whiteSpace=wrap;html=1;" parent="kQuobPmg_RCRlRh3Mcc4-161" vertex="1">
          <mxGeometry y="600" width="240" height="30" as="geometry" />
        </mxCell>
        <mxCell id="kQuobPmg_RCRlRh3Mcc4-184" value="+ upcoming_birthdays(*tuple): str" style="text;strokeColor=none;fillColor=none;align=left;verticalAlign=top;spacingLeft=4;spacingRight=4;overflow=hidden;rotatable=0;points=[[0,0.5],[1,0.5]];portConstraint=eastwest;whiteSpace=wrap;html=1;" parent="kQuobPmg_RCRlRh3Mcc4-161" vertex="1">
          <mxGeometry y="630" width="240" height="30" as="geometry" />
        </mxCell>
        <mxCell id="kQuobPmg_RCRlRh3Mcc4-185" value="+ unknown(): str" style="text;strokeColor=none;fillColor=none;align=left;verticalAlign=top;spacingLeft=4;spacingRight=4;overflow=hidden;rotatable=0;points=[[0,0.5],[1,0.5]];portConstraint=eastwest;whiteSpace=wrap;html=1;" parent="kQuobPmg_RCRlRh3Mcc4-161" vertex="1">
          <mxGeometry y="660" width="240" height="30" as="geometry" />
        </mxCell>
        <mxCell id="kQuobPmg_RCRlRh3Mcc4-186" value="+ help_command(): str" style="text;strokeColor=none;fillColor=none;align=left;verticalAlign=top;spacingLeft=4;spacingRight=4;overflow=hidden;rotatable=0;points=[[0,0.5],[1,0.5]];portConstraint=eastwest;whiteSpace=wrap;html=1;" parent="kQuobPmg_RCRlRh3Mcc4-161" vertex="1">
          <mxGeometry y="690" width="240" height="30" as="geometry" />
        </mxCell>
        <mxCell id="kQuobPmg_RCRlRh3Mcc4-189" value="" style="endArrow=classic;endFill=1;endSize=12;html=1;rounded=0;entryX=-0.014;entryY=0.069;entryDx=0;entryDy=0;entryPerimeter=0;exitX=1.008;exitY=0.3;exitDx=0;exitDy=0;exitPerimeter=0;" parent="WIyWlLk6GJQsqaUBKTNV-1" source="kQuobPmg_RCRlRh3Mcc4-171" target="kQuobPmg_RCRlRh3Mcc4-130" edge="1">
          <mxGeometry width="160" relative="1" as="geometry">
            <mxPoint x="-1280" y="55.5" as="sourcePoint" />
            <mxPoint x="-1181" y="56.5" as="targetPoint" />
            <Array as="points">
              <mxPoint x="-1120" y="280" />
              <mxPoint x="-1120" y="181" />
            </Array>
          </mxGeometry>
        </mxCell>
        <mxCell id="kQuobPmg_RCRlRh3Mcc4-190" value="" style="endArrow=classic;endFill=1;endSize=12;html=1;rounded=0;entryX=-0.005;entryY=1.011;entryDx=0;entryDy=0;entryPerimeter=0;exitX=1.004;exitY=1.015;exitDx=0;exitDy=0;exitPerimeter=0;" parent="WIyWlLk6GJQsqaUBKTNV-1" target="kQuobPmg_RCRlRh3Mcc4-153" edge="1">
          <mxGeometry width="160" relative="1" as="geometry">
            <mxPoint x="-1280" y="60" as="sourcePoint" />
            <mxPoint x="-1181" y="61" as="targetPoint" />
          </mxGeometry>
        </mxCell>
        <mxCell id="kQuobPmg_RCRlRh3Mcc4-191" value="+ main(): None" style="html=1;whiteSpace=wrap;" parent="WIyWlLk6GJQsqaUBKTNV-1" vertex="1">
          <mxGeometry x="-1455" y="790" width="110" height="50" as="geometry" />
        </mxCell>
        <mxCell id="kQuobPmg_RCRlRh3Mcc4-192" value="" style="endArrow=classic;endFill=1;endSize=12;html=1;rounded=0;entryX=-0.005;entryY=1.011;entryDx=0;entryDy=0;entryPerimeter=0;" parent="WIyWlLk6GJQsqaUBKTNV-1" edge="1">
          <mxGeometry width="160" relative="1" as="geometry">
            <mxPoint x="-1400" y="790" as="sourcePoint" />
            <mxPoint x="-1400.48" y="746" as="targetPoint" />
          </mxGeometry>
        </mxCell>
        <mxCell id="kQuobPmg_RCRlRh3Mcc4-193" value="" style="endArrow=classic;endFill=1;endSize=12;html=1;rounded=0;entryX=0;entryY=0.5;entryDx=0;entryDy=0;exitX=1.004;exitY=1.015;exitDx=0;exitDy=0;exitPerimeter=0;" parent="WIyWlLk6GJQsqaUBKTNV-1" target="kQuobPmg_RCRlRh3Mcc4-104" edge="1">
          <mxGeometry width="160" relative="1" as="geometry">
            <mxPoint x="-1279" y="428.23" as="sourcePoint" />
            <mxPoint x="-1170" y="428.23" as="targetPoint" />
          </mxGeometry>
        </mxCell>
        <mxCell id="kQuobPmg_RCRlRh3Mcc4-194" value="" style="endArrow=classic;endFill=1;endSize=12;html=1;rounded=0;entryX=-0.005;entryY=1.011;entryDx=0;entryDy=0;entryPerimeter=0;" parent="WIyWlLk6GJQsqaUBKTNV-1" edge="1">
          <mxGeometry width="160" relative="1" as="geometry">
            <mxPoint x="-760" y="430" as="sourcePoint" />
            <mxPoint x="-910" y="428.23" as="targetPoint" />
          </mxGeometry>
        </mxCell>
        <mxCell id="kQuobPmg_RCRlRh3Mcc4-196" value="prompt_toolkit.completion.NestedController" style="shape=module;align=left;spacingLeft=20;align=center;verticalAlign=top;whiteSpace=wrap;html=1;" parent="WIyWlLk6GJQsqaUBKTNV-1" vertex="1">
          <mxGeometry x="-1170" y="680" width="250" height="50" as="geometry" />
        </mxCell>
        <mxCell id="kQuobPmg_RCRlRh3Mcc4-197" value="" style="edgeStyle=orthogonalEdgeStyle;rounded=0;orthogonalLoop=1;jettySize=auto;html=1;endArrow=block;endFill=0;" parent="WIyWlLk6GJQsqaUBKTNV-1" edge="1">
          <mxGeometry relative="1" as="geometry">
            <mxPoint x="-1040" y="731" as="sourcePoint" />
            <mxPoint x="-1040" y="780" as="targetPoint" />
            <Array as="points">
              <mxPoint x="-1040" y="731" />
              <mxPoint x="-1040" y="731" />
            </Array>
          </mxGeometry>
        </mxCell>
        <mxCell id="kQuobPmg_RCRlRh3Mcc4-198" value="+ get_nested_controller(): NestedController" style="html=1;whiteSpace=wrap;" parent="WIyWlLk6GJQsqaUBKTNV-1" vertex="1">
          <mxGeometry x="-1160" y="780" width="240" height="60" as="geometry" />
        </mxCell>
        <mxCell id="kQuobPmg_RCRlRh3Mcc4-199" value="" style="endArrow=classic;endFill=1;endSize=12;html=1;rounded=0;entryX=0;entryY=0.5;entryDx=0;entryDy=0;" parent="WIyWlLk6GJQsqaUBKTNV-1" target="kQuobPmg_RCRlRh3Mcc4-198" edge="1">
          <mxGeometry width="160" relative="1" as="geometry">
            <mxPoint x="-1340" y="810" as="sourcePoint" />
            <mxPoint x="-1170" y="800" as="targetPoint" />
          </mxGeometry>
        </mxCell>
      </root>
    </mxGraphModel>
  </diagram>
</mxfile>
